# xmcd
#
# Track frame offsets: 
#        150
#        21352
#        39545
#        59992
#        81129
#        101497
#        121104
#        142372
#        163415
#        183870
#
# Disc length: 2731 seconds
#
# Revision: 1
# Processed by: cddbd v1.5.2PL0 Copyright (c) Steve Scherf et al.
# Submitted via: ExactAudioCopyFreeDBPlugin 1.0
#
DISCID=910aa90a
DTITLE=Peña Suazo Y La Banda Gorda - Durisimo...
DYEAR=1995
DGENRE=Merengue
TTITLE0=Candela Pura
TTITLE1=Ven Que Tengo Mambo
TTITLE2=Soy Yo
TTITLE3=Ella Me Mintio
TTITLE4=Un Chinchin De Tela
TTITLE5=Tocame La Sirena
TTITLE6=Las Mujeres Son
TTITLE7=Pa'Los Que Sufren
TTITLE8=Besame
TTITLE9=El Hombre Carinoso
EXTD=
EXTT0=
EXTT1=
EXTT2=
EXTT3=
EXTT4=
EXTT5=
EXTT6=
EXTT7=
EXTT8=
EXTT9=
PLAYORDER=
